<svg id="Layer_2" data-name="Layer 2" xmlns="http://www.w3.org/2000/svg" viewBox="0 0 232.91 181.01"><defs><style>.cls-1{fill:none;stroke:#fff;stroke-miterlimit:10;stroke-width:5px;}</style></defs><title>gutters</title><path class="cls-1" d="M238.87,46.88V62.07L210.18,91.34,192,131.08a10,10,0,0,1-1.91,2.58l-84.86,86.6h0a7.33,7.33,0,0,1-5.62,2.63H18.4A7.5,7.5,0,0,1,11,215.3v-81L96.62,46.88Z" transform="translate(-8.46 -44.38)"/><path class="cls-1" d="M153.2,149.49V134.3H128.4" transform="translate(-8.46 -44.38)"/><path class="cls-1" d="M99.62,222.89a7.41,7.41,0,0,0,6.74-4.39l31.54-69h15.3l57-58.15" transform="translate(-8.46 -44.38)"/><path class="cls-1" d="M128.4,134.3H32.45l-6.61,6.75V207.7h69l33.53-73.4" transform="translate(-8.46 -44.38)"/><line class="cls-1" x1="61.99" y1="72.44" x2="114.55" y2="72.44"/><line class="cls-1" x1="79.12" y1="54.95" x2="131.69" y2="54.95"/><line class="cls-1" x1="96.26" y1="37.47" x2="148.82" y2="37.47"/><line class="cls-1" x1="113.39" y1="19.98" x2="165.95" y2="19.98"/></svg>