<svg id="Capa_1" data-name="Capa 1" xmlns="http://www.w3.org/2000/svg" viewBox="0 0 302.4 302.4"><defs><style>.cls-1{fill:#fff;}</style></defs><title>insulation</title><path class="cls-1" d="M204.8,97.6a76.26,76.26,0,0,0-53.6-22.4A74.6,74.6,0,0,0,97.6,97.6a76,76,0,0,0,53.6,129.6,74.6,74.6,0,0,0,53.6-22.4,76.26,76.26,0,0,0,22.4-53.6A74.6,74.6,0,0,0,204.8,97.6Zm-14.4,92.8a56,56,0,1,1,16-39.2A55.33,55.33,0,0,1,190.4,190.4Z"/><path class="cls-1" d="M292,140.8H261.2a10.4,10.4,0,1,0,0,20.8H292a10.4,10.4,0,0,0,0-20.8Z"/><path class="cls-1" d="M151.2,250.8a10.59,10.59,0,0,0-10.4,10.4V292a10.4,10.4,0,0,0,20.8,0V261.2A10.59,10.59,0,0,0,151.2,250.8Z"/><path class="cls-1" d="M258,243.6l-22-22c-3.6-4-10.4-4-14.4,0a10.14,10.14,0,0,0,0,14.4l22,22A10.18,10.18,0,1,0,258,243.6Z"/><path class="cls-1" d="M151.2,0a10.59,10.59,0,0,0-10.4,10.4V41.2a10.4,10.4,0,0,0,20.8,0V10.4A10.59,10.59,0,0,0,151.2,0Z"/><path class="cls-1" d="M258.4,44.4a10.14,10.14,0,0,0-14.4,0l-22,22a10.14,10.14,0,0,0,0,14.4c3.6,4,10.4,4,14.4,0l22-22A10.14,10.14,0,0,0,258.4,44.4Z"/><path class="cls-1" d="M41.2,140.8H10.4A10.59,10.59,0,0,0,0,151.2a10.33,10.33,0,0,0,10.4,10.4H41.2a10.4,10.4,0,1,0,0-20.8Z"/><path class="cls-1" d="M80.4,221.6c-3.6-4-10.4-4-14.4,0l-22,22A10.18,10.18,0,1,0,58.4,258l22-22A10.14,10.14,0,0,0,80.4,221.6Z"/><path class="cls-1" d="M80.4,66.4l-22-22A10.18,10.18,0,0,0,44,58.8l22,22A10.18,10.18,0,0,0,80.4,66.4Z"/></svg>