<svg xmlns="http://www.w3.org/2000/svg" width="295.718" height="84.479" viewBox="0 0 295.718 84.479">
  <g id="Group_87" data-name="Group 87" transform="translate(-73.658 -44.417)">
    <path id="Path_513" data-name="Path 513" d="M146.061,115.838h16.13V99.3s-5.931-.9-11.24,4.774C145.118,109.817,146.061,115.838,146.061,115.838Z" transform="translate(-23.794 -16.561)" fill="#00a1ed"/>
    <path id="Path_514" data-name="Path 514" d="M175.1,115.843V99.308a13.355,13.355,0,0,1,11.143,4.672,22.006,22.006,0,0,1,5.032,11.862Z" transform="translate(-33.364 -16.566)" fill="#00a1ed"/>
    <rect id="Rectangle_50" data-name="Rectangle 50" width="16.175" height="6.47" transform="translate(142.171 102.062)" fill="#00a1ed"/>
    <rect id="Rectangle_51" data-name="Rectangle 51" width="16.175" height="6.47" transform="translate(122.267 102.062)" fill="#00a1ed"/>
    <g id="Group_87-2" data-name="Group 87" transform="translate(194.732 64.073)">
      <path id="Path_515" data-name="Path 515" d="M266.327,76.343q-.332-.755-.5-1.117a1.83,1.83,0,0,0-.257-.453,4.15,4.15,0,0,0-1.3-.091,5.635,5.635,0,0,0-2.325.5,5.81,5.81,0,0,0-1.963,1.434,7.88,7.88,0,0,0-1.872,5.255,8.427,8.427,0,0,0,1.752,5.376,5.642,5.642,0,0,0,4.53,2.084,7.161,7.161,0,0,0,2.476-.453,5.735,5.735,0,0,0,2.115-1.329l1.268,2.688a7.109,7.109,0,0,1-4.2,2.084,12.634,12.634,0,0,1-2.387.181,10.317,10.317,0,0,1-3.321-.634,9.141,9.141,0,0,1-3.231-1.9,9.969,9.969,0,0,1-3.051-7.671,10.627,10.627,0,0,1,3.141-8.033,9.463,9.463,0,0,1,6.825-2.748,18.068,18.068,0,0,1,5.1.725l.6,6.251h-2.446Q266.659,77.1,266.327,76.343Z" transform="translate(-254.066 -71.511)" fill="#1a1818"/>
      <path id="Path_516" data-name="Path 516" d="M293.953,71.556l.574,6.161h-2.356l-1.238-2.99H286.04V80.1h4.59v3.171h-4.59v5.949h5.1l1.117-2.99h2.386l-.634,6.161H280.544l-.423-2.658,1.963-.393V74.455l-1.9-.211V71.556Z" transform="translate(-262.635 -71.526)" fill="#1a1818"/>
      <path id="Path_517" data-name="Path 517" d="M310.945,90.431l-.03,1.57v.393h-6.281l-.483-2.627,2.083-.393v-14.8l-1.932-.211V71.556h7.731l6.855,17.939V74.516l-1.752-.211V71.556h6.494l.453,2.809-2.024.362V92.394h-6.1l-6.553-16.972V89.253l1.54.483Z" transform="translate(-270.538 -71.526)" fill="#1a1818"/>
      <path id="Path_518" data-name="Path 518" d="M338.358,89.978l3.473-.664V74.727h-3.413l-1.3,3.02H334.8l.573-6.191H352.13l.664,6.161h-2.3l-1.328-2.99h-3.443V89.314l3.5.664-.3,2.416H338.661Z" transform="translate(-280.617 -71.526)" fill="#1a1818"/>
      <path id="Path_519" data-name="Path 519" d="M376.752,71.556l.574,6.161H374.97l-1.238-2.99h-4.892V80.1h4.59v3.171h-4.59v5.949h5.1l1.117-2.99h2.386l-.634,6.161H363.343l-.423-2.658,1.963-.393V74.455l-1.9-.211V71.556Z" transform="translate(-289.867 -71.526)" fill="#1a1818"/>
      <path id="Path_520" data-name="Path 520" d="M393.744,90.431l-.03,1.57v.393h-6.282l-.483-2.627,2.084-.393v-14.8l-1.933-.211V71.556h7.731l6.855,17.939V74.516l-1.752-.211V71.556h6.494l.452,2.809-2.023.362V92.394h-6.1L392.2,75.422V89.253l1.54.483Z" transform="translate(-297.77 -71.526)" fill="#1a1818"/>
      <path id="Path_521" data-name="Path 521" d="M425.6,90.431l-.03,1.57v.393h-6.282l-.483-2.627,2.083-.393v-14.8l-1.933-.211V71.556h7.732l6.855,17.939V74.516L431.8,74.3V71.556h6.494l.453,2.809-2.024.362V92.394h-6.1l-6.553-16.972V89.253l1.54.483Z" transform="translate(-308.249 -71.526)" fill="#1a1818"/>
      <path id="Path_522" data-name="Path 522" d="M458.974,90.34l-.03,1.6v.453h-7.852l-.423-2.688,2.114-.393v-14.8l-2.054-.211V71.556h7.852l.453,2.809-2.3.362V89.4l2.235.362Z" transform="translate(-318.727 -71.526)" fill="#1a1818"/>
      <path id="Path_523" data-name="Path 523" d="M474.275,92.394V90.129l2.415-.634L475.6,85.81h-5.919l-1.148,3.805,2.658.483v2.3h-7.218l-.393-2.356,1.661-.544,5.98-17.939h3.745l6.07,17.939,1.389.544-.3,2.356Zm-3.655-9.755h3.655l-1.6-6.795Z" transform="translate(-322.975 -71.526)" fill="#1a1818"/>
      <path id="Path_524" data-name="Path 524" d="M500.384,71.556l.453,2.748-2.265.423v14.5h5.1l1.117-2.99h2.386l-.634,6.161h-13.47l-.423-2.658,1.963-.393V74.455l-1.9-.211V71.556Z" transform="translate(-332.535 -71.526)" fill="#1a1818"/>
    </g>
    <g id="Group_88" data-name="Group 88" transform="translate(194.597 89.892)">
      <path id="Path_525" data-name="Path 525" d="M264.959,121.1l-.017.941v.266h-4.367l-.266-1.58,1.029-.231v-3.551h-3.994v3.6l1.118.213v.338l.018.941v.266h-4.349l-.266-1.58,1.154-.231v-8.7l-1.119-.124v-1.615h4.332l.266,1.651-1.154.213v3.16h3.994V111.8l-.994-.124v-1.615h4.384l.266,1.651-1.332.213v8.627l1.3.213Z" transform="translate(-253.865 -110.008)" fill="#1a1818"/>
      <path id="Path_526" data-name="Path 526" d="M276.8,122.355a4.677,4.677,0,0,1-3.852-1.74,8.121,8.121,0,0,1,0-8.911,4.669,4.669,0,0,1,3.852-1.721,4.586,4.586,0,0,1,3.834,1.721,8.12,8.12,0,0,1,0,8.911A4.6,4.6,0,0,1,276.8,122.355Zm-2.752-6.16a5.779,5.779,0,0,0,.746,3.054,2.226,2.226,0,0,0,3.994,0,5.779,5.779,0,0,0,.746-3.054,5.851,5.851,0,0,0-.746-3.088,2.212,2.212,0,0,0-3.994,0A5.851,5.851,0,0,0,274.045,116.194Z" transform="translate(-259.702 -109.982)" fill="#1a1818"/>
      <path id="Path_527" data-name="Path 527" d="M292.1,120.765l.018.834v.711h-3.55l-.107-1.545,1.047-.142v-8.787l-.976-.107v-1.668H293.1l2.556,9.089,2.574-9.089h4.242l.266,1.651-.976.213v8.716l.905.124v1.545H298.9l-.16-1.6.78-.231v-8.751l-2.964,10.349h-2.378l-2.894-10.225v8.716Z" transform="translate(-265.244 -110.008)" fill="#1a1818"/>
      <path id="Path_528" data-name="Path 528" d="M319.6,110.061l.338,3.621h-1.385l-.727-1.758h-2.876v3.16h2.7v1.864h-2.7v3.5h3l.657-1.757h1.4l-.372,3.621h-7.917l-.249-1.562,1.154-.231v-8.751l-1.119-.124v-1.58Z" transform="translate(-272.812 -110.008)" fill="#1a1818"/>
      <path id="Path_529" data-name="Path 529" d="M336.325,121.1l-.018.941v.266h-4.616l-.248-1.58,1.243-.231v-8.7l-1.207-.124v-1.615h4.616l.266,1.651-1.35.213v8.627l1.314.213Z" transform="translate(-279.38 -110.008)" fill="#1a1818"/>
      <path id="Path_530" data-name="Path 530" d="M343.995,120.765l.018.834v.711h-3.55l-.107-1.545,1.048-.142v-8.787l-.976-.107v-1.668h4.562l2.556,9.089,2.574-9.089h4.243l.266,1.651-.976.213v8.716l.905.124v1.545h-3.764l-.16-1.6.781-.231v-8.751l-2.964,10.349h-2.379l-2.893-10.225v8.716Z" transform="translate(-282.311 -110.008)" fill="#1a1818"/>
      <path id="Path_531" data-name="Path 531" d="M363.315,120.783l1.243-.248V111.8l-1.207-.124v-1.615h4.438q3.71,0,4.7,2.378a4.6,4.6,0,0,1,.3,1.7,3.839,3.839,0,0,1-1.26,3.054,5.6,5.6,0,0,1-3.817,1.172h-.834v1.917c0,.1.027.151.08.168a1.589,1.589,0,0,0,.258.054q.177.026.506.062c.219.024.44.054.666.089s.444.068.656.1.391.056.532.08l-.106,1.474h-5.911Zm3.568-4.278q2.929,0,3.337-1.4a3.3,3.3,0,0,0,.142-1.012,2.1,2.1,0,0,0-.6-1.58,2.646,2.646,0,0,0-1.9-.586h-.976Z" transform="translate(-289.862 -110.008)" fill="#1a1818"/>
      <path id="Path_532" data-name="Path 532" d="M387.791,114.055a3.6,3.6,0,0,1-2.467,3.568l1.562,2.964,1.119.177v1.545h-3l-1.846-4.154q-.622.053-1.3.054v2.414l.923.142v1.545h-4.314l-.16-1.509,1.225-.248V111.8l-1.207-.124v-1.615h4.349a5.872,5.872,0,0,1,3.87,1.118A3.593,3.593,0,0,1,387.791,114.055Zm-5.929,2.272a1.642,1.642,0,0,0,.266.017h.319a3.413,3.413,0,0,0,2.254-.657,1.963,1.963,0,0,0,.692-1.58,1.768,1.768,0,0,0-.727-1.6,5.178,5.178,0,0,0-2.8-.568Z" transform="translate(-294.794 -110.008)" fill="#1a1818"/>
      <path id="Path_533" data-name="Path 533" d="M399.128,122.355a4.677,4.677,0,0,1-3.852-1.74,8.12,8.12,0,0,1,0-8.911,4.669,4.669,0,0,1,3.852-1.721,4.587,4.587,0,0,1,3.834,1.721,8.121,8.121,0,0,1,0,8.911A4.6,4.6,0,0,1,399.128,122.355Zm-2.752-6.16a5.779,5.779,0,0,0,.746,3.054,2.227,2.227,0,0,0,3.994,0,5.785,5.785,0,0,0,.745-3.054,5.857,5.857,0,0,0-.745-3.088,2.213,2.213,0,0,0-3.994,0A5.851,5.851,0,0,0,396.376,116.194Z" transform="translate(-299.936 -109.982)" fill="#1a1818"/>
      <path id="Path_534" data-name="Path 534" d="M413.917,110.061l.248,1.4-1.367.3L415.585,120q.053-.2.248-.746.444-1.3.995-2.964l.586-1.74q.283-.852.532-1.589t.391-1.2l-1.615-.319v-1.385h4.136v1.58l-.657.124-3.674,10.544h-2.5l-3.728-10.544-.639-.124v-1.58Z" transform="translate(-305.103 -110.008)" fill="#1a1818"/>
      <path id="Path_535" data-name="Path 535" d="M435.111,110.061l.338,3.621h-1.385l-.727-1.758H430.46v3.16h2.7v1.864h-2.7v3.5h3l.657-1.757h1.4l-.372,3.621H427.23l-.25-1.562,1.154-.231v-8.751l-1.119-.124v-1.58Z" transform="translate(-310.801 -110.008)" fill="#1a1818"/>
      <path id="Path_536" data-name="Path 536" d="M444.956,120.765l.018.834v.711h-3.55l-.107-1.545,1.048-.142v-8.787l-.976-.107v-1.668h4.562l2.556,9.089,2.574-9.089h4.243l.266,1.651-.976.213v8.716l.905.124v1.545h-3.764l-.16-1.6.781-.231v-8.751l-2.964,10.349h-2.379l-2.894-10.225v8.716Z" transform="translate(-315.516 -110.008)" fill="#1a1818"/>
      <path id="Path_537" data-name="Path 537" d="M472.458,110.061l.338,3.621h-1.385l-.727-1.758h-2.876v3.16h2.7v1.864h-2.7v3.5h3l.658-1.757h1.4l-.372,3.621h-7.917l-.249-1.562,1.154-.231v-8.751l-1.119-.124v-1.58Z" transform="translate(-323.084 -110.008)" fill="#1a1818"/>
      <path id="Path_538" data-name="Path 538" d="M482.446,121.155l-.017.923v.231h-3.692l-.285-1.545,1.225-.23v-8.7l-1.136-.124v-1.651h4.543l4.03,10.544v-8.8l-1.029-.124v-1.615H489.9l.266,1.651-1.189.213v10.385h-3.586l-3.852-9.977v8.13l.9.284Z" transform="translate(-327.73 -110.008)" fill="#1a1818"/>
      <path id="Path_539" data-name="Path 539" d="M498.561,120.889l2.042-.39v-8.574H498.6l-.764,1.775h-1.366l.337-3.639h9.852l.391,3.621H505.7l-.781-1.758h-2.023V120.5l2.059.39-.177,1.421h-6.035Z" transform="translate(-333.654 -110.008)" fill="#1a1818"/>
    </g>
    <path id="Path_540" data-name="Path 540" d="M166.849,55.4l45.5,56.845h9.872l-49.5-62.208Z" transform="translate(-30.65 -0.376)" fill="#bdbec1"/>
    <path id="Path_541" data-name="Path 541" d="M74.484,109.881H87.993L110.334,83.9V55.845h12.729l.13,10.428L140.6,48.9l49.229,60.984H367" transform="translate(-0.272)" fill="none" stroke="#1a1818" stroke-miterlimit="10" stroke-width="6"/>
    <g id="Group_89" data-name="Group 89" transform="translate(73.658 120.008)">
      <path id="Path_542" data-name="Path 542" d="M80.467,157.784a2.585,2.585,0,0,1-1.772,2.563l1.121,2.13.8.128v1.109H78.464l-1.325-2.983q-.447.037-.931.038V162.5l.662.1v1.109h-3.1l-.115-1.084.88-.178v-6.287l-.867-.089v-1.16h3.124a4.223,4.223,0,0,1,2.78.8A2.583,2.583,0,0,1,80.467,157.784Zm-4.259,1.633a1.242,1.242,0,0,0,.191.013h.229a2.457,2.457,0,0,0,1.62-.472,1.41,1.41,0,0,0,.5-1.135,1.268,1.268,0,0,0-.523-1.148,3.711,3.711,0,0,0-2.014-.409Z" transform="translate(-73.658 -154.877)" fill="#d00c1b"/>
      <path id="Path_543" data-name="Path 543" d="M88.61,163.746a3.359,3.359,0,0,1-2.767-1.25,5.834,5.834,0,0,1,0-6.4,3.354,3.354,0,0,1,2.767-1.237,3.3,3.3,0,0,1,2.754,1.237,5.834,5.834,0,0,1,0,6.4A3.3,3.3,0,0,1,88.61,163.746Zm-1.976-4.425a4.151,4.151,0,0,0,.536,2.193,1.6,1.6,0,0,0,2.869,0,4.151,4.151,0,0,0,.536-2.193,4.2,4.2,0,0,0-.536-2.219,1.59,1.59,0,0,0-2.869,0A4.2,4.2,0,0,0,86.634,159.321Z" transform="translate(-77.351 -154.858)" fill="#d00c1b"/>
      <path id="Path_544" data-name="Path 544" d="M100.693,163.746a3.36,3.36,0,0,1-2.767-1.25,5.834,5.834,0,0,1,0-6.4,3.354,3.354,0,0,1,2.767-1.237,3.3,3.3,0,0,1,2.754,1.237,5.834,5.834,0,0,1,0,6.4A3.3,3.3,0,0,1,100.693,163.746Zm-1.976-4.425a4.151,4.151,0,0,0,.536,2.193,1.6,1.6,0,0,0,2.869,0,4.151,4.151,0,0,0,.536-2.193,4.2,4.2,0,0,0-.536-2.219,1.59,1.59,0,0,0-2.869,0A4.2,4.2,0,0,0,98.717,159.321Z" transform="translate(-81.325 -154.858)" fill="#d00c1b"/>
      <path id="Path_545" data-name="Path 545" d="M113.537,163.714h-4.4l-.179-1.121.829-.166v-6.287l-.8-.089v-1.135H114.8l.242,2.614h-.969l-.548-1.276h-2.066v2.27H113.4v1.339h-1.938v2.511l2.168.332Z" transform="translate(-85.268 -154.877)" fill="#d00c1b"/>
      <path id="Path_546" data-name="Path 546" d="M122.1,162.846l-.013.676v.191h-3.315l-.179-1.134.893-.166v-6.248l-.867-.089v-1.16h3.315l.191,1.186-.968.152v6.2l.944.153Z" transform="translate(-88.437 -154.877)" fill="#d00c1b"/>
      <path id="Path_547" data-name="Path 547" d="M127.712,162.885l-.013.662v.166h-2.652l-.2-1.109.88-.166V156.19l-.816-.089v-1.186h3.264l2.894,7.573v-6.325l-.74-.089v-1.16h2.741l.191,1.186-.854.152v7.459h-2.576l-2.767-7.166v5.84l.65.2Z" transform="translate(-90.492 -154.877)" fill="#d00c1b"/>
      <path id="Path_548" data-name="Path 548" d="M142.869,162.452a2.127,2.127,0,0,0,.382-.026v-1.646l-1.313-.178.23-1.032h2.754v4.017a15.986,15.986,0,0,1-2.251.166,6.4,6.4,0,0,1-1.907-.256,3.922,3.922,0,0,1-1.428-.79,4.121,4.121,0,0,1-1.364-3.3,4.445,4.445,0,0,1,1.262-3.328,4.326,4.326,0,0,1,3.162-1.2,7.264,7.264,0,0,1,1.887.23c.145.043.251.072.319.09l.229,2.627H143.8l-.65-1.569a7.861,7.861,0,0,0-.829-.038,2.3,2.3,0,0,0-.97.223,2.432,2.432,0,0,0-.842.644,3.4,3.4,0,0,0-.79,2.321,3.021,3.021,0,0,0,.8,2.193A3.121,3.121,0,0,0,142.869,162.452Z" transform="translate(-94.811 -154.864)" fill="#d00c1b"/>
      <path id="Path_549" data-name="Path 549" d="M161.537,162.171a.967.967,0,0,0,.331-.325.868.868,0,0,0,.121-.466.967.967,0,0,0-.1-.452,1.016,1.016,0,0,0-.3-.338,5.84,5.84,0,0,0-.976-.536q-.733-.343-1.154-.574a3.721,3.721,0,0,1-.74-.522,2.253,2.253,0,0,1-.663-1.684,2.149,2.149,0,0,1,.867-1.76,3.372,3.372,0,0,1,2.117-.638,8.892,8.892,0,0,1,2.423.345l.191,2.423h-1.071l-.625-1.352a6.7,6.7,0,0,0-1.02-.076,1.2,1.2,0,0,0-.835.281.815.815,0,0,0-.313.611.8.8,0,0,0,.166.53,1.625,1.625,0,0,0,.421.35,10.146,10.146,0,0,0,1,.517,11.226,11.226,0,0,1,1.115.587,3.035,3.035,0,0,1,.689.567,2.008,2.008,0,0,1,.548,1.4,2.621,2.621,0,0,1-.281,1.294,2.5,2.5,0,0,1-.727.817,3.713,3.713,0,0,1-2.168.587,7.059,7.059,0,0,1-2.6-.574l.255-2.461,1.071.089.1,1.415c.11.025.262.064.452.115a2.393,2.393,0,0,0,.619.077,2.868,2.868,0,0,0,.6-.058A1.549,1.549,0,0,0,161.537,162.171Z" transform="translate(-101.384 -154.864)" fill="#d00c1b"/>
      <path id="Path_550" data-name="Path 550" d="M171.157,162.846l-.013.676v.191h-3.315l-.179-1.134.893-.166v-6.248l-.867-.089v-1.16h3.315l.191,1.186-.969.152v6.2l.944.153Z" transform="translate(-104.571 -154.877)" fill="#d00c1b"/>
      <path id="Path_551" data-name="Path 551" d="M173.939,162.592l.829-.166v-6.287l-.8-.1v-1.121h2.27q3.583,0,4.6,2.422a4.892,4.892,0,0,1,.332,1.874,4.668,4.668,0,0,1-1.1,3.335,4.308,4.308,0,0,1-3.283,1.166h-2.665Zm2.5-.217.242.013a2.568,2.568,0,0,0,2.046-.8,3.44,3.44,0,0,0,.7-2.327,3.029,3.029,0,0,0-.765-2.27,3.069,3.069,0,0,0-2.219-.74Z" transform="translate(-106.639 -154.877)" fill="#d00c1b"/>
      <path id="Path_552" data-name="Path 552" d="M189,162.846l-.013.676v.191H185.67l-.179-1.134.893-.166v-6.248l-.867-.089v-1.16h3.315l.191,1.186-.969.152v6.2l.944.153Z" transform="translate(-110.439 -154.877)" fill="#d00c1b"/>
      <path id="Path_553" data-name="Path 553" d="M194.611,162.885l-.013.662v.166h-2.652l-.2-1.109.88-.166V156.19l-.816-.089v-1.186h3.264l2.895,7.573v-6.325l-.74-.089v-1.16h2.741l.191,1.186-.854.152v7.459h-2.576l-2.767-7.166v5.84l.65.2Z" transform="translate(-112.495 -154.877)" fill="#d00c1b"/>
      <path id="Path_554" data-name="Path 554" d="M209.767,162.452a2.136,2.136,0,0,0,.383-.026v-1.646l-1.313-.178.229-1.032h2.754v4.017a15.977,15.977,0,0,1-2.25.166,6.393,6.393,0,0,1-1.907-.256,3.916,3.916,0,0,1-1.428-.79,4.12,4.12,0,0,1-1.364-3.3,4.445,4.445,0,0,1,1.262-3.328,4.329,4.329,0,0,1,3.162-1.2,7.268,7.268,0,0,1,1.887.23c.144.043.25.072.319.09l.23,2.627H210.7l-.65-1.569a7.852,7.852,0,0,0-.829-.038,2.293,2.293,0,0,0-.969.223,2.419,2.419,0,0,0-.842.644,3.4,3.4,0,0,0-.791,2.321,3.018,3.018,0,0,0,.8,2.193A3.119,3.119,0,0,0,209.767,162.452Z" transform="translate(-116.813 -154.864)" fill="#d00c1b"/>
      <path id="Path_555" data-name="Path 555" d="M236.872,154.916v1.121l-.995.255-1.4,7.421h-2.143l-1.8-6.451-1.734,6.451h-2.219l-1.4-7.484-.7-.166v-1.148h3.111l.217,1.007-.893.128,1.046,5.84,1.963-6.809h1.811l1.9,6.987,1-6.018-1.072-.166.14-.968Z" transform="translate(-123.262 -154.877)" fill="#d00c1b"/>
      <path id="Path_556" data-name="Path 556" d="M246.738,162.846l-.013.676v.191H243.41l-.179-1.134.893-.166v-6.248l-.867-.089v-1.16h3.315l.191,1.186-.969.152v6.2l.944.153Z" transform="translate(-129.429 -154.877)" fill="#d00c1b"/>
      <path id="Path_557" data-name="Path 557" d="M252.351,162.885l-.013.662v.166h-2.652l-.2-1.109.88-.166V156.19l-.816-.089v-1.186h3.264l2.895,7.573v-6.325l-.74-.089v-1.16h2.742l.191,1.186-.854.152v7.459h-2.576l-2.767-7.166v5.84l.65.2Z" transform="translate(-131.485 -154.877)" fill="#d00c1b"/>
      <path id="Path_558" data-name="Path 558" d="M262.972,162.592l.829-.166v-6.287l-.8-.1v-1.121h2.27q3.583,0,4.6,2.422a4.893,4.893,0,0,1,.332,1.874,4.671,4.671,0,0,1-1.1,3.335,4.311,4.311,0,0,1-3.284,1.166h-2.665Zm2.5-.217.242.013a2.568,2.568,0,0,0,2.046-.8,3.441,3.441,0,0,0,.7-2.327,3.029,3.029,0,0,0-.765-2.27,3.069,3.069,0,0,0-2.219-.74Z" transform="translate(-135.922 -154.877)" fill="#d00c1b"/>
      <path id="Path_559" data-name="Path 559" d="M278.38,163.746a3.36,3.36,0,0,1-2.767-1.25,5.834,5.834,0,0,1,0-6.4,3.354,3.354,0,0,1,2.767-1.237,3.3,3.3,0,0,1,2.754,1.237,5.834,5.834,0,0,1,0,6.4A3.3,3.3,0,0,1,278.38,163.746Zm-1.976-4.425a4.151,4.151,0,0,0,.536,2.193,1.6,1.6,0,0,0,2.869,0,4.151,4.151,0,0,0,.536-2.193,4.2,4.2,0,0,0-.536-2.219,1.59,1.59,0,0,0-2.869,0A4.2,4.2,0,0,0,276.4,159.321Z" transform="translate(-139.765 -154.858)" fill="#d00c1b"/>
      <path id="Path_560" data-name="Path 560" d="M298.527,154.916v1.121l-.995.255-1.4,7.421h-2.142l-1.8-6.451-1.734,6.451h-2.219l-1.4-7.484-.7-.166v-1.148h3.111l.217,1.007-.893.128,1.046,5.84,1.964-6.809h1.811l1.9,6.987.995-6.018-1.071-.166.14-.968Z" transform="translate(-143.539 -154.877)" fill="#d00c1b"/>
      <path id="Path_561" data-name="Path 561" d="M308.444,162.171a.975.975,0,0,0,.332-.325.874.874,0,0,0,.121-.466.976.976,0,0,0-.1-.452,1.028,1.028,0,0,0-.3-.338,5.768,5.768,0,0,0-.975-.536q-.733-.343-1.154-.574a3.722,3.722,0,0,1-.74-.522,2.254,2.254,0,0,1-.663-1.684,2.151,2.151,0,0,1,.867-1.76,3.374,3.374,0,0,1,2.117-.638,8.883,8.883,0,0,1,2.422.345l.191,2.423H309.5l-.624-1.352a6.716,6.716,0,0,0-1.021-.076,1.2,1.2,0,0,0-.835.281.815.815,0,0,0-.311.611.8.8,0,0,0,.165.53,1.626,1.626,0,0,0,.421.35,10.076,10.076,0,0,0,1,.517,11.229,11.229,0,0,1,1.115.587,3.016,3.016,0,0,1,.688.567,2.007,2.007,0,0,1,.55,1.4,2.629,2.629,0,0,1-.281,1.294,2.511,2.511,0,0,1-.728.817,3.712,3.712,0,0,1-2.168.587,7.065,7.065,0,0,1-2.6-.574l.255-2.461,1.071.089.1,1.415c.111.025.262.064.453.115a2.393,2.393,0,0,0,.619.077,2.862,2.862,0,0,0,.6-.058A1.548,1.548,0,0,0,308.444,162.171Z" transform="translate(-149.7 -154.864)" fill="#d00c1b"/>
      <path id="Path_562" data-name="Path 562" d="M326.462,162.846l-.013.676v.191h-3.315l-.179-1.134.893-.166v-6.248l-.867-.089v-1.16H326.3l.191,1.186-.969.152v6.2l.944.153Z" transform="translate(-155.649 -154.877)" fill="#d00c1b"/>
      <path id="Path_563" data-name="Path 563" d="M332.074,162.885l-.012.662v.166H329.41l-.2-1.109.88-.166V156.19l-.816-.089v-1.186h3.264l2.895,7.573v-6.325l-.74-.089v-1.16h2.741l.191,1.186-.854.152v7.459h-2.576l-2.767-7.166v5.84l.65.2Z" transform="translate(-157.705 -154.877)" fill="#d00c1b"/>
      <path id="Path_564" data-name="Path 564" d="M346.215,162.171a.974.974,0,0,0,.332-.325.874.874,0,0,0,.121-.466.976.976,0,0,0-.1-.452,1.025,1.025,0,0,0-.3-.338,5.828,5.828,0,0,0-.975-.536q-.734-.343-1.154-.574a3.719,3.719,0,0,1-.74-.522,2.253,2.253,0,0,1-.663-1.684,2.151,2.151,0,0,1,.867-1.76,3.373,3.373,0,0,1,2.117-.638,8.892,8.892,0,0,1,2.423.345l.191,2.423h-1.071l-.625-1.352a6.7,6.7,0,0,0-1.02-.076,1.2,1.2,0,0,0-.835.281.815.815,0,0,0-.313.611.8.8,0,0,0,.166.53,1.625,1.625,0,0,0,.421.35,10.2,10.2,0,0,0,1,.517,11.1,11.1,0,0,1,1.116.587,3.035,3.035,0,0,1,.689.567,2.005,2.005,0,0,1,.548,1.4,2.621,2.621,0,0,1-.281,1.294,2.5,2.5,0,0,1-.727.817,3.713,3.713,0,0,1-2.168.587,7.065,7.065,0,0,1-2.6-.574l.256-2.461,1.07.089.1,1.415c.111.025.261.064.452.115a2.4,2.4,0,0,0,.619.077,2.868,2.868,0,0,0,.6-.058A1.549,1.549,0,0,0,346.215,162.171Z" transform="translate(-162.123 -154.864)" fill="#d00c1b"/>
      <path id="Path_565" data-name="Path 565" d="M356.258,162.426q1.607,0,1.607-1.913v-4.361l-.816-.115v-1.121h2.907v1.16l-.752.166v4.31a3.45,3.45,0,0,1-.752,2.352,2.756,2.756,0,0,1-2.193.861,3.5,3.5,0,0,1-2.639-.842,3.358,3.358,0,0,1-.74-2.371v-4.387l-.854-.114v-1.135h3.43v1.121l-.905.14v4.348a2.262,2.262,0,0,0,.376,1.428A1.616,1.616,0,0,0,356.258,162.426Z" transform="translate(-165.21 -154.877)" fill="#d00c1b"/>
      <path id="Path_566" data-name="Path 566" d="M368,154.916l.191,1.16-.956.178v6.121h2.155l.472-1.262h1.007l-.267,2.6h-5.688l-.179-1.121.829-.166v-6.287l-.8-.089v-1.135Z" transform="translate(-169.39 -154.877)" fill="#d00c1b"/>
      <path id="Path_567" data-name="Path 567" d="M378.008,163.714v-.956l1.02-.268-.459-1.556h-2.5l-.485,1.607,1.122.2v.968H373.66l-.166-.994.7-.23,2.525-7.573H378.3l2.563,7.573.587.23-.128.994Zm-1.543-4.119h1.543l-.676-2.869Z" transform="translate(-172.271 -154.877)" fill="#d00c1b"/>
      <path id="Path_568" data-name="Path 568" d="M385.961,162.693l1.467-.281v-6.159h-1.442l-.548,1.276h-.982l.242-2.614h7.077l.281,2.6h-.968l-.561-1.263h-1.454v6.159l1.479.281-.127,1.02h-4.335Z" transform="translate(-175.877 -154.877)" fill="#d00c1b"/>
      <path id="Path_569" data-name="Path 569" d="M399.8,162.846l-.013.676v.191h-3.315l-.179-1.134.893-.166v-6.248l-.867-.089v-1.16h3.315l.191,1.186-.969.152v6.2l.944.153Z" transform="translate(-179.77 -154.877)" fill="#d00c1b"/>
      <path id="Path_570" data-name="Path 570" d="M406.078,163.746a3.359,3.359,0,0,1-2.767-1.25,5.83,5.83,0,0,1,0-6.4,3.355,3.355,0,0,1,2.767-1.237,3.3,3.3,0,0,1,2.754,1.237,5.834,5.834,0,0,1,0,6.4A3.3,3.3,0,0,1,406.078,163.746Zm-1.976-4.425a4.151,4.151,0,0,0,.536,2.193,1.6,1.6,0,0,0,2.869,0,4.157,4.157,0,0,0,.536-2.193,4.21,4.21,0,0,0-.536-2.219,1.59,1.59,0,0,0-2.869,0A4.2,4.2,0,0,0,404.1,159.321Z" transform="translate(-181.763 -154.858)" fill="#d00c1b"/>
      <path id="Path_571" data-name="Path 571" d="M417.175,162.885l-.013.662v.166H414.51l-.2-1.109.879-.166V156.19l-.816-.089v-1.186h3.265l2.894,7.573v-6.325l-.739-.089v-1.16h2.742l.191,1.186-.855.152v7.459h-2.576l-2.767-7.166v5.84l.65.2Z" transform="translate(-185.694 -154.877)" fill="#d00c1b"/>
      <path id="Path_572" data-name="Path 572" d="M440.861,162.452a2.131,2.131,0,0,0,.383-.026v-1.646l-1.313-.178.23-1.032h2.754v4.017a15.977,15.977,0,0,1-2.25.166,6.4,6.4,0,0,1-1.907-.256,3.917,3.917,0,0,1-1.428-.79,4.122,4.122,0,0,1-1.364-3.3,4.445,4.445,0,0,1,1.262-3.328,4.329,4.329,0,0,1,3.163-1.2,7.266,7.266,0,0,1,1.886.23c.144.043.25.072.319.09l.23,2.627h-1.033l-.65-1.569a7.842,7.842,0,0,0-.829-.038,2.3,2.3,0,0,0-.969.223,2.432,2.432,0,0,0-.842.644,3.4,3.4,0,0,0-.791,2.321,3.016,3.016,0,0,0,.8,2.193A3.118,3.118,0,0,0,440.861,162.452Z" transform="translate(-192.817 -154.864)" fill="#d00c1b"/>
      <path id="Path_573" data-name="Path 573" d="M451.5,162.426q1.607,0,1.607-1.913v-4.361l-.816-.115v-1.121H455.2v1.16l-.752.166v4.31a3.45,3.45,0,0,1-.752,2.352,2.756,2.756,0,0,1-2.193.861,3.494,3.494,0,0,1-2.639-.842,3.355,3.355,0,0,1-.74-2.371v-4.387l-.854-.114v-1.135H450.7v1.121l-.905.14v4.348a2.262,2.262,0,0,0,.376,1.428A1.616,1.616,0,0,0,451.5,162.426Z" transform="translate(-196.536 -154.877)" fill="#d00c1b"/>
      <path id="Path_574" data-name="Path 574" d="M460.934,162.693l1.466-.281v-6.159h-1.441l-.548,1.276h-.982l.242-2.614h7.077l.281,2.6h-.968l-.561-1.263h-1.454v6.159l1.479.281-.128,1.02h-4.335Z" transform="translate(-200.535 -154.877)" fill="#d00c1b"/>
      <path id="Path_575" data-name="Path 575" d="M472.258,162.693l1.467-.281v-6.159h-1.442l-.548,1.276h-.982l.242-2.614h7.077l.281,2.6h-.968l-.561-1.263H475.37v6.159l1.479.281-.128,1.02h-4.335Z" transform="translate(-204.259 -154.877)" fill="#d00c1b"/>
      <path id="Path_576" data-name="Path 576" d="M488.468,154.916l.242,2.6h-.994l-.523-1.263h-2.066v2.27h1.938v1.339h-1.937v2.511h2.154l.472-1.262h1.007l-.268,2.6h-5.687l-.179-1.121.828-.166v-6.287l-.8-.089v-1.135Z" transform="translate(-208.164 -154.877)" fill="#d00c1b"/>
      <path id="Path_577" data-name="Path 577" d="M499.6,157.784a2.584,2.584,0,0,1-1.772,2.563l1.123,2.13.8.128v1.109H497.6l-1.326-2.983c-.3.025-.608.038-.93.038V162.5l.662.1v1.109h-3.1l-.115-1.084.88-.178v-6.287l-.867-.089v-1.16h3.124a4.222,4.222,0,0,1,2.779.8A2.581,2.581,0,0,1,499.6,157.784Zm-4.258,1.633a1.239,1.239,0,0,0,.191.013h.23a2.453,2.453,0,0,0,1.619-.472,1.41,1.41,0,0,0,.5-1.135,1.271,1.271,0,0,0-.522-1.148,3.717,3.717,0,0,0-2.015-.409Z" transform="translate(-211.507 -154.877)" fill="#d00c1b"/>
      <path id="Path_578" data-name="Path 578" d="M507.6,162.171a.975.975,0,0,0,.332-.325.874.874,0,0,0,.121-.466.977.977,0,0,0-.1-.452,1.025,1.025,0,0,0-.3-.338,5.812,5.812,0,0,0-.976-.536q-.733-.343-1.154-.574a3.721,3.721,0,0,1-.74-.522,2.254,2.254,0,0,1-.663-1.684,2.149,2.149,0,0,1,.867-1.76,3.373,3.373,0,0,1,2.117-.638,8.883,8.883,0,0,1,2.422.345l.192,2.423H508.65l-.625-1.352a6.7,6.7,0,0,0-1.02-.076,1.2,1.2,0,0,0-.835.281.815.815,0,0,0-.313.611.8.8,0,0,0,.166.53,1.625,1.625,0,0,0,.421.35,10.2,10.2,0,0,0,1,.517,11.168,11.168,0,0,1,1.116.587,3.035,3.035,0,0,1,.689.567,2.008,2.008,0,0,1,.548,1.4,2.621,2.621,0,0,1-.281,1.294,2.5,2.5,0,0,1-.727.817,3.714,3.714,0,0,1-2.168.587,7.065,7.065,0,0,1-2.6-.574l.256-2.461,1.071.089.1,1.415c.111.025.262.064.453.115a2.393,2.393,0,0,0,.619.077,2.869,2.869,0,0,0,.6-.058A1.549,1.549,0,0,0,507.6,162.171Z" transform="translate(-215.2 -154.864)" fill="#d00c1b"/>
    </g>
  </g>
</svg>
