<svg id="Layer_1" data-name="Layer 1" xmlns="http://www.w3.org/2000/svg" viewBox="0 0 243.07 117.16"><defs><style>.cls-1{fill:#fff;stroke:#fff;stroke-miterlimit:10;}</style></defs><title>roofing</title><path class="cls-1" d="M49.13,74.06,5.55,173.4l153.41,2L200.59,74.06ZM157.31,173l-148.14-2L50.75,76.42H196.93Z" transform="translate(-4.79 -73.56)"/><path class="cls-1" d="M199.76,89.53l-37.68,92.14L5.55,180v2.34l158.66,2L201.28,93Z" transform="translate(-4.79 -73.56)"/><path class="cls-1" d="M201.55,74.06l45.55,107.2h-2.66L198.89,74.06Z" transform="translate(-4.79 -73.56)"/><path class="cls-1" d="M201.28,93l41.32,97.2H240L199.33,94.67Z" transform="translate(-4.79 -73.56)"/><rect class="cls-1" x="0.76" y="99.85" width="2.7" height="8.96"/><rect class="cls-1" x="239.61" y="107.7" width="2.7" height="8.96"/><rect class="cls-1" x="242.26" y="185.39" width="2.7" height="6.95" transform="translate(49.96 358.92) rotate(-90)"/><polygon class="cls-1" points="21.79 99.59 18.66 99.59 59.47 3.3 62.59 3.29 21.79 99.59"/><polygon class="cls-1" points="39.92 99.56 36.8 99.56 77.6 3.27 80.72 3.26 39.92 99.56"/><polygon class="cls-1" points="60.39 99.53 57.27 99.53 98.07 3.24 101.19 3.23 60.39 99.53"/><polygon class="cls-1" points="79.13 99.5 76.01 99.51 116.81 3.21 119.93 3.21 79.13 99.5"/><polygon class="cls-1" points="98.88 99.47 95.76 99.48 136.56 3.18 139.69 3.18 98.88 99.47"/><polygon class="cls-1" points="119.95 99.44 116.83 99.44 157.64 3.15 160.76 3.14 119.95 99.44"/><polygon class="cls-1" points="139.83 99.41 136.71 99.41 177.51 3.12 180.64 3.11 139.83 99.41"/><polygon class="cls-1" points="187.94 15.64 37.87 15.64 39.29 12.27 189.37 12.27 187.94 15.64"/><polygon class="cls-1" points="181.96 31.11 31.88 31.11 33.3 27.74 183.38 27.74 181.96 31.11"/><polygon class="cls-1" points="175.61 46.08 25.54 46.08 26.96 42.71 177.04 42.71 175.61 46.08"/><polygon class="cls-1" points="168.33 61.06 18.25 61.06 19.68 57.69 169.75 57.69 168.33 61.06"/><polygon class="cls-1" points="162.4 75.46 12.32 75.46 13.75 72.08 163.82 72.08 162.4 75.46"/></svg>