<?xml version="1.0"?>
<svg xmlns="http://www.w3.org/2000/svg" viewBox="0 0 50 50">
    <path style="text-indent:0;text-align:start;line-height:normal;text-transform:none;block-progression:tb;-inkscape-font-specification:Bitstream Vera Sans" d="M 2.8125 2 A 1.0001 1.0001 0 0 0 2 3 L 2 47 A 1.0001 1.0001 0 0 0 3 48 L 47 48 A 1.0001 1.0001 0 0 0 48 47 L 48 3 A 1.0001 1.0001 0 0 0 47 2 L 3 2 A 1.0001 1.0001 0 0 0 2.90625 2 A 1.0001 1.0001 0 0 0 2.8125 2 z M 4 4 L 46 4 L 46 46 L 4 46 L 4 4 z M 18 11 L 18 12 L 18 18 L 18 19 L 19 19 L 41 19 L 42 19 L 42 18 L 42 12 L 42 11 L 41 11 L 19 11 L 18 11 z M 20 13 L 40 13 L 40 17 L 20 17 L 20 13 z M 8 14 L 8 16 L 16 16 L 16 14 L 8 14 z M 18 23 L 18 24 L 18 30 L 18 31 L 19 31 L 41 31 L 42 31 L 42 30 L 42 24 L 42 23 L 41 23 L 19 23 L 18 23 z M 20 25 L 40 25 L 40 29 L 20 29 L 20 25 z M 8 26 L 8 28 L 16 28 L 16 26 L 8 26 z M 18 35 L 18 36 L 18 40 L 18 41 L 19 41 L 23 41 L 24 41 L 24 40 L 24 36 L 24 35 L 23 35 L 19 35 L 18 35 z M 20 37 L 22 37 L 22 39 L 20 39 L 20 37 z M 26 37 L 26 39 L 42 39 L 42 37 L 26 37 z"/>
</svg>
